<?xml version="1.0" encoding="utf-8"?>
<!-- Generator: Adobe Illustrator 21.0.2, SVG Export Plug-In . SVG Version: 6.00 Build 0)  -->
<svg version="1.1" id="Layer_1" xmlns="http://www.w3.org/2000/svg" xmlns:xlink="http://www.w3.org/1999/xlink"
	 viewBox="0 0 159.5 159.5" style="enable-background:new 0 0 159.5 159.5;" xml:space="preserve">
<path style="fill:#ffebca;" d="M159.5,79.7c0,44-35.7,79.7-79.7,79.7c-44,0-79.7-35.7-79.7-79.7C0,35.7,35.7,0,79.7,0
	C123.8,0,159.5,35.7,159.5,79.7L159.5,79.7z M159.5,79.7"/>
<path style="fill:#EDBE9D;" d="M116.3,117.1l-15.5-5.7c-11.6-3.8-9.1-10.5-9.1-10.5h-12h-0.2h-12c0,0,2.5,6.7-9.1,10.5l-15.5,5.7
	l36.7-0.4L116.3,117.1z"/>
<path style="fill:#E7E7E7;" d="M41.4,149.7c11.4,6.3,24.5,9.8,38.4,9.8c13.9,0,27-3.6,38.4-9.8v-32.6H41.4V149.7z"/>
<path style="fill:#A73624;" d="M84.6,124c-0.2,0.4-1.1,0.7-2,0.7h-5.9c-0.9,0-1.8-0.3-2-0.7l-3.4-6.5c-0.7-1.3,0.2-2.5,2.1-2.5h12.3
	c1.9,0,2.7,1.2,2.1,2.5L84.6,124z"/>
<path style="fill:#EDBE9D;" d="M79.4,104.1l-17.8,14.7l-16-6.1l22.9-4.3l-1.7-3.6c0,0,1.4-0.9,0.8-3.6
	C67.5,101.1,72.9,104.1,79.4,104.1z"/>
<path style="fill:#FFFFFF;" d="M67.6,103.2c0.1,0,11.8,11.9,11.8,11.9l-17.8,10.2l-4.1-15.1L67.6,103.2z"/>
<path style="fill:#FFFFFF;" d="M91.4,103.2c-0.1,0-12,11.9-12,11.9l18,10.2l3.7-15.1L91.4,103.2z"/>
<path style="fill:#FFCEA9;" d="M50.7,60.3c0.1,3.4-0.6,6.3-2.3,6.3c-1.7,0.1-3-2.6-3.1-6c-0.1-3.4,1.2-6.1,2.9-6.2
	C49.9,54.4,50.6,56.9,50.7,60.3z"/>
<path style="fill:#FFCEA9;" d="M108.4,60.3c-0.1,3.4,0.6,6.3,2.3,6.3c1.7,0.1,3-2.6,3.1-6c0.1-3.4-1.2-6.1-2.9-6.2
	C109.1,54.4,108.5,56.9,108.4,60.3z"/>
<ellipse style="fill:#FFCEA9;" cx="79.6" cy="61.4" rx="31" ry="43.2"/>
<path style="fill:#322016;" d="M94.8,83.8c-1.3,3.4-2.6,6.1-2.6,6.1c1.2-7.4-1.2-9.5-1.2-9.5c-0.9-1-2.9-1.7-4.9-2.2
	c-4.3-1-8.7-1-13,0c-2.1,0.5-4.1,1.2-5,2.2c0,0-2.3,2.1-1.2,9.5c0,0-1.3-2.7-2.6-6.1c0,0-11.2-9.7-14.9-12.6c0,0,2.4,15,11,24.1
	c0,0,7.5,9.2,19,9.2c13.2,0,21.3-11.6,21.3-11.6c7.4-9.3,9.4-22.9,9.4-22.9C106.4,72.9,94.8,83.8,94.8,83.8z M87.8,95
	c-0.9,1.1-2.1,1.6-3.4,1.6c-3.2,0-4.8-2.9-4.8-2.9s-1.6,2.9-4.8,2.9c-1.3,0-2.5-0.6-3.4-1.6c-1.2-1.5-2.7-4.4-2.8-10.2
	c0,0,1.7-4.3,11.1-4.3c9.7,0,10.8,4.3,10.8,4.3C90.5,90.6,89,93.6,87.8,95z"/>
<g>
	<path style="fill:#322016;" d="M49.9,64.8c0,0,1.5-15.5,3.2-23.7c0,0,9.8-18,33.9,0.6c0,0,12.8,10.3,19.5,1.7
		c0,0,2.6,15.1,2.7,22.5l0.6,5.2c4.6-15.3,1.8-31.8,1.8-31.8c-6.1-26.2-30.4-24.3-30.4-24.3c-18.2-1.9-28.1,8.8-28.1,8.8
		c-6.7,4.7-2.4,11.8-2.4,11.8c-3.7,0.4-4,3.4-4,3.4c-1.6,14.3,2.7,31.6,2.7,31.6C49.5,70.2,49.7,65.4,49.9,64.8z"/>
</g>
<path style="fill:#A73624;" d="M79.8,159.5c2.4,0,4.8-0.1,7.2-0.3l-0.9-13.8l-1.4-21.5h-9.8l-1.4,21.5l-0.9,13.8
	C74.9,159.4,77.3,159.5,79.8,159.5z"/>
<g>
	<path style="fill:#2B99F6;" d="M140.7,131.2c-1-2.9-1.7-4.8-1.9-5.2c-1.4-2.2-14.6-10.9-27.8-14.1v0c-1-0.3-7.3-1.8-10.3-1.8
		l-6.8,35.2l-3,13.5C110.8,155.9,128.3,145.8,140.7,131.2z"/>
	<path style="fill:#2B99F6;" d="M68.5,158.7l-2.7-13.5L58,109.9c-4.6,0-8.2,1.6-9.5,2l0,0c-13.1,3.2-26.4,11.9-27.8,14.1
		c-0.2,0.4-0.9,2.3-1.9,5.2C31.2,145.8,48.6,155.9,68.5,158.7z"/>
</g>
<path style="fill:#232323;" d="M108.3,54.4c0-0.2-0.3-0.8-0.5-0.9c-1.5-1-2.4-2-4.5-2c-2,0-4.1-0.1-6.1,0c-5,0.2-10,0.4-15,0.5
	c-1,0-2,0.1-3,0.1c-1,0-2-0.1-3-0.1c-5-0.2-10-0.4-15-0.5c-2-0.1-4.1,0-6.1,0c-2.1,0-3,1-4.5,2c-0.1,0.1-0.5,0.7-0.5,0.9
	c0.1,1.8-0.7,3.5,1.3,4.9c0.6,0.7,0.6,2.1,0.8,3c0.7,3.1,3,4.8,6.4,5.3c4,0.8,10,0.5,11.2,0.3c1.5-0.2,2.9-1.1,3.6-2.1
	c1-1.4,2-3,2.8-4.5c0.5-0.9,0.8-1.8,1.3-2.7c0.3-0.7,0.8-1,1.6-1c0.8,0,1.4,0.3,1.7,1c0.4,0.9,0.8,1.8,1.3,2.7
	c0.9,1.5,1.8,3,2.8,4.5c0.8,1,2.1,2,3.6,2.1c1.2,0.2,7.2,0.5,11.2-0.3c3.4-0.5,5.7-2.2,6.4-5.3c0.2-0.9,0.2-2.3,0.8-3
	C109,57.9,108.2,56.1,108.3,54.4z M75.7,58.1c-0.4,2.2-1.4,4.2-2.9,6.1c-1,1.3-2.4,2-4.2,2.3c-3.3,0.6-6.6,0.3-9.8-0.1
	c-2.1-0.3-3.5-1.4-4.1-3.2c-0.9-2.7-1.1-5.4-0.6-8.2c0.2-1.1,0.8-1.9,2.1-2c2.3-0.2,5.5-0.3,6.9-0.3c1.3,0,2.7,0,4,0.1
	c2,0.2,4,0.4,5.8,0.9C75.1,54.4,76,56.1,75.7,58.1z M103.8,63.2c-0.6,1.8-2,3-4.1,3.2c-3.3,0.4-6.5,0.7-9.8,0.1
	c-1.8-0.3-3.2-1-4.2-2.3c-1.5-1.8-2.5-3.8-2.9-6.1c-0.3-2.1,0.6-3.8,2.9-4.4c1.9-0.5,3.9-0.7,5.8-0.9c1.3-0.1,2.7-0.1,4-0.1
	c1.4,0,4.6,0.1,6.9,0.3c1.3,0.1,1.9,0.9,2.1,2C104.9,57.8,104.7,60.5,103.8,63.2z"/>
</svg>
