<?xml version="1.0" encoding="utf-8"?>
<!-- Generator: Adobe Illustrator 21.0.2, SVG Export Plug-In . SVG Version: 6.00 Build 0)  -->
<svg version="1.1" id="Layer_1" xmlns="http://www.w3.org/2000/svg" xmlns:xlink="http://www.w3.org/1999/xlink"
	 viewBox="0 0 46 46" style="enable-background:new 0 0 46 46;" xml:space="preserve">
<path style="fill:#ffebca;" d="M46,23c0,12.7-10.3,23-23,23C10.3,46,0,35.7,0,23C0,10.3,10.3,0,23,0C35.7,0,46,10.3,46,23L46,23z
	 M46,23"/>
<path style="fill:#EDBE9D;" d="M25.7,27.1l-5.3,0c0,0,1.7,5.1-4.6,6.1l7.5,1.3l7.4-1.3C25,32.8,25.7,27.1,25.7,27.1z"/>
<ellipse style="fill:#FFCEA9;" cx="23" cy="18.2" rx="7.5" ry="9.7"/>
<path style="fill:#A73624;" d="M26.3,11.2c0,0-5.6,2.7-8.6,3c0,0-2.2,0.3-2.1,2.9c0.2,2.6,0.9,5.8,1,6.2c0.2,0.7,1.2,5.9-0.3,7.7
	c0,0,0.7-4.9-0.8-6.3c0,0-2.5-4-2.8-8.4c0,0,0-7.3,4-10.6c0,0,4.9-4.4,11.8-0.8c0,0,3.6,1.4,5.1,6.8c0,0,1.1,2.3-1.3,7.6
	s-2.2,5.8-2.4,6.8c0,0-0.4,3.3,1.4,5.3c0,0-4.2-4.3-2.5-7s1.9-5.9,1.8-6.5C30.5,17.9,30.1,11.8,26.3,11.2z"/>
<path style="fill:#282928;" d="M31.1,15.9c0,0.2,0,0.4,0,0.5c0,0.3,0,0.5-0.3,0.6c-0.1,0-0.2,0.2-0.2,0.3c-0.2,0.6-0.3,1.2-0.4,1.8
	c0,0.1-0.1,0.3-0.1,0.4c-0.2,0.6-0.6,1-1.2,1.2C28.2,21,27.5,21,26.8,21c-1.1-0.1-2-0.6-2.6-1.6c-0.3-0.5-0.5-0.9-0.6-1.4
	c-0.1-0.4-0.4-0.6-0.8-0.5c-0.3,0-0.4,0.1-0.5,0.4c-0.2,0.6-0.4,1.1-0.7,1.6c-0.5,0.8-1.1,1.2-2,1.4c-0.7,0.2-1.3,0.1-2,0
	c-0.7-0.2-1.4-0.5-1.7-1.4c-0.2-0.6-0.3-1.2-0.5-1.8c-0.1-0.2-0.2-0.5-0.4-0.6c-0.1,0-0.1-0.2-0.1-0.3c0-0.2,0-0.4,0-0.6
	c0-0.1,0-0.2,0.2-0.2c1-0.1,2-0.3,3-0.4c1.1-0.1,2.1,0.1,3.1,0.3c0.4,0.1,0.9,0.2,1.3,0.3c0.6,0.1,1.3-0.1,1.9-0.2
	c1-0.2,1.9-0.4,2.9-0.4c0.8,0,1.6,0.1,2.4,0.1c0.3,0,0.6,0.1,1,0.1C30.8,15.8,30.9,15.9,31.1,15.9z M29.9,17c0,0-0.5-0.8-1-1
	c-1-0.2-1.9-0.2-2.9,0c-0.4,0.1-0.8,0.2-1.2,0.3C24.3,16.5,24,17,24,17.4c0,0.6,0.2,1.2,0.5,1.7c0.4,0.6,0.8,1.2,1.6,1.4
	c0.7,0.1,1.3,0.2,2,0.1c0.9-0.2,1.5-0.7,1.7-1.6c0.1-0.5,0.1-0.9,0.2-1.4c0-0.1-0.1-0.5-0.1-0.5L29.9,17z M18.7,15.9
	c-0.5,0.1-1,0.1-1.5,0.2c-0.7,0.2-1,0.6-1.1,1.2c-0.1,0.7,0.1,1.4,0.3,2c0.2,0.6,0.6,0.9,1.2,1.1c0.4,0.1,0.8,0.2,1.2,0.3
	c0.5,0,1,0,1.5-0.3c0.8-0.5,1.3-1.3,1.5-2.3c0-0.3,0.1-0.6,0-0.8c-0.1-0.6-0.5-0.9-1-1C20.1,16,19.4,15.9,18.7,15.9z"/>
<path style="fill:#2B99F6;" d="M23,46c5.4,0,10.3-1.8,14.2-4.9l-1.3-3.8c0-0.1-0.1-0.2-0.1-0.2c-0.8-2.3-3-3.9-5.5-3.9L26.2,34
	c-2.1,0.4-4.2,0.4-6.3,0l-4.2-0.8c-2.5,0-4.6,1.6-5.5,3.9c0,0.1-0.1,0.1-0.1,0.2l-1.3,3.8C12.7,44.2,17.6,46,23,46z"/>
</svg>
